<svg width="151" height="40" viewBox="0 0 151 40" fill="none" xmlns="http://www.w3.org/2000/svg">
<path d="M1.61616 3.55086C0.727273 3.55086 0 4.37095 0 5.3733C0 6.37564 0.727273 7.19574 1.61616 7.19574H5.20242L9.44485 26.3314C9.80364 27.9534 11.0933 29.065 12.5754 29.065H32.7273C34.1851 29.065 35.423 27.9752 35.8077 26.3879L40 9.01818H36.6158L32.7273 25.4202H12.5754L8.33293 6.28452C8.15814 5.49961 7.75477 4.80357 7.18746 4.30792C6.62014 3.81226 5.9217 3.54567 5.20404 3.55086H1.61616ZM30.7071 29.065C28.0485 29.065 25.8586 31.5345 25.8586 34.5324C25.8586 37.5303 28.0485 39.9997 30.7071 39.9997C33.3657 39.9997 35.5556 37.5303 35.5556 34.5324C35.5556 31.5345 33.3657 29.065 30.7071 29.065ZM16.1616 29.065C13.503 29.065 11.3131 31.5345 11.3131 34.5324C11.3131 37.5303 13.503 39.9997 16.1616 39.9997C18.8202 39.9997 21.0101 37.5303 21.0101 34.5324C21.0101 31.5345 18.8202 29.065 16.1616 29.065ZM16.1616 32.7099C17.0715 32.7099 17.7778 33.5082 17.7778 34.5324C17.7778 35.5584 17.0699 36.3548 16.1616 36.3548C15.2517 36.3548 14.5455 35.5566 14.5455 34.5324C14.5455 33.5063 15.2533 32.7099 16.1616 32.7099ZM30.7071 32.7099C31.617 32.7099 32.3232 33.5082 32.3232 34.5324C32.3232 35.5584 31.6154 36.3548 30.7071 36.3548C29.7972 36.3548 29.0909 35.5566 29.0909 34.5324C29.0909 33.5063 29.7988 32.7099 30.7071 32.7099Z" fill="#F25864"/>
<path d="M27.2508 14.2431C27.3351 13.4597 27.3984 12.6764 27.3984 11.8693C27.3984 11.0622 27.3351 10.2788 27.2508 9.49541H30.8131C30.9818 10.255 31.0872 11.0503 31.0872 11.8693C31.0872 12.6882 30.9818 13.4835 30.8131 14.2431H27.2508ZM25.3853 20.8424C26.0177 19.5249 26.5025 18.1006 26.8398 16.617H29.9489C28.9278 18.5971 27.3079 20.097 25.3853 20.8424V20.8424ZM25.1219 14.2431H20.1894C20.084 13.4597 20.0208 12.6764 20.0208 11.8693C20.0208 11.0622 20.084 10.2669 20.1894 9.49541H25.1219C25.2167 10.2669 25.2905 11.0622 25.2905 11.8693C25.2905 12.6764 25.2167 13.4597 25.1219 14.2431ZM22.6556 21.3172C21.7809 19.8929 21.0747 18.3143 20.6426 16.617H24.6687C24.2365 18.3143 23.5304 19.8929 22.6556 21.3172ZM18.4399 7.12156H15.3624C16.3729 5.13609 17.9917 3.63376 19.9154 2.8961C19.283 4.21359 18.8087 5.6379 18.4399 7.12156ZM15.3624 16.617H18.4399C18.8087 18.1006 19.283 19.5249 19.9154 20.8424C17.9958 20.0966 16.3792 18.5964 15.3624 16.617V16.617ZM14.4981 14.2431C14.3295 13.4835 14.2241 12.6882 14.2241 11.8693C14.2241 11.0503 14.3295 10.255 14.4981 9.49541H18.0604C17.9761 10.2788 17.9129 11.0622 17.9129 11.8693C17.9129 12.6764 17.9761 13.4597 18.0604 14.2431H14.4981ZM22.6556 2.40946C23.5304 3.83377 24.2365 5.42425 24.6687 7.12156H20.6426C21.0747 5.42425 21.7809 3.83377 22.6556 2.40946V2.40946ZM29.9489 7.12156H26.8398C26.5099 5.6515 26.0215 4.23246 25.3853 2.8961C27.3246 3.64386 28.9371 5.15126 29.9489 7.12156ZM22.6556 0C16.8273 0 12.1162 5.34117 12.1162 11.8693C12.1162 15.0172 13.2266 18.0362 15.2031 20.2621C16.1818 21.3643 17.3437 22.2385 18.6224 22.835C19.9011 23.4315 21.2716 23.7385 22.6556 23.7385C25.4509 23.7385 28.1316 22.488 30.1081 20.2621C32.0847 18.0362 33.1951 15.0172 33.1951 11.8693C33.1951 10.3106 32.9224 8.76714 32.3928 7.32709C31.8631 5.88705 31.0868 4.57859 30.1081 3.47643C29.1295 2.37426 27.9676 1.49998 26.6889 0.903494C25.4102 0.307008 24.0397 0 22.6556 0V0Z" fill="#53C4E0"/>
<path d="M58.092 12.884H61.564L63.664 26.52L65.232 12.884H69.04L66.1 31H61.648L59.828 19.884L58.008 31H53.556L50.616 12.884H54.424L55.992 26.52L58.092 12.884ZM77.6929 17.056C80.0075 17.056 81.1649 18.288 81.1649 20.752V25.176H74.8089V28.032C74.8089 28.1813 74.8555 28.312 74.9489 28.424C75.0609 28.536 75.1915 28.592 75.3409 28.592H76.8809C77.0302 28.592 77.1515 28.536 77.2449 28.424C77.3569 28.312 77.4129 28.1813 77.4129 28.032V26.52H81.1649V27.584C81.1649 30.048 80.0075 31.28 77.6929 31.28H74.5289C72.2142 31.28 71.0569 30.048 71.0569 27.584V20.752C71.0569 18.288 72.2142 17.056 74.5289 17.056H77.6929ZM74.8089 22.712H77.4129V20.192C77.4129 20.0427 77.3569 19.912 77.2449 19.8C77.1515 19.688 77.0302 19.632 76.8809 19.632H75.3409C75.1915 19.632 75.0609 19.688 74.9489 19.8C74.8555 19.912 74.8089 20.0427 74.8089 20.192V22.712ZM89.2728 17.056H89.8608C92.1755 17.056 93.3328 18.288 93.3328 20.752V27.584C93.3328 30.048 92.1755 31.28 89.8608 31.28H89.2728C87.9288 31.28 86.9675 30.8507 86.3888 29.992V31H83.2248V12.884H86.9768V17.728C87.5742 17.28 88.3395 17.056 89.2728 17.056ZM86.9768 20.304V28.032C86.9768 28.1813 87.0235 28.312 87.1168 28.424C87.2288 28.536 87.3595 28.592 87.5088 28.592H89.0488C89.1982 28.592 89.3195 28.536 89.4128 28.424C89.5248 28.312 89.5808 28.1813 89.5808 28.032V20.304C89.5808 20.1547 89.5248 20.024 89.4128 19.912C89.3195 19.8 89.1982 19.744 89.0488 19.744H87.5088C87.3595 19.744 87.2288 19.8 87.1168 19.912C87.0235 20.024 86.9768 20.1547 86.9768 20.304Z" fill="#53C4E0"/>
<path d="M111.737 17.644H108.013V16.216C108.013 16.0667 107.957 15.936 107.845 15.824C107.752 15.712 107.63 15.656 107.481 15.656H105.941C105.792 15.656 105.661 15.712 105.549 15.824C105.456 15.936 105.409 16.0667 105.409 16.216V19.436C105.409 19.5853 105.456 19.716 105.549 19.828C105.661 19.94 105.792 19.996 105.941 19.996H108.461C110.776 20.0333 111.933 21.2653 111.933 23.692V27.584C111.933 30.048 110.776 31.28 108.461 31.28H105.157C102.842 31.28 101.685 30.048 101.685 27.584V25.708H105.409V27.724C105.409 27.8733 105.456 28.004 105.549 28.116C105.661 28.228 105.792 28.284 105.941 28.284H107.677C107.826 28.284 107.948 28.228 108.041 28.116C108.153 28.004 108.209 27.8733 108.209 27.724V24.168C108.209 24.0187 108.153 23.888 108.041 23.776C107.948 23.664 107.826 23.608 107.677 23.608H105.157C102.842 23.608 101.685 22.376 101.685 19.912V16.3C101.685 13.836 102.842 12.604 105.157 12.604H108.265C110.58 12.604 111.737 13.836 111.737 16.3V17.644ZM118.121 31H114.369V12.884H118.121V17.728C118.681 17.28 119.447 17.056 120.417 17.056H121.005C123.32 17.056 124.477 18.288 124.477 20.752V31H120.725V20.304C120.725 20.1547 120.669 20.024 120.557 19.912C120.464 19.8 120.343 19.744 120.193 19.744H118.653C118.336 19.744 118.159 19.912 118.121 20.248V31ZM137.138 20.752V27.584C137.138 30.048 135.98 31.28 133.666 31.28H130.502C128.187 31.28 127.03 30.048 127.03 27.584V20.752C127.03 18.288 128.187 17.056 130.502 17.056H133.666C135.98 17.056 137.138 18.288 137.138 20.752ZM133.386 28.368V19.94C133.386 19.7907 133.33 19.66 133.218 19.548C133.124 19.436 133.003 19.38 132.854 19.38H131.314C131.164 19.38 131.034 19.436 130.922 19.548C130.828 19.66 130.782 19.7907 130.782 19.94V28.368C130.782 28.5173 130.828 28.648 130.922 28.76C131.034 28.872 131.164 28.928 131.314 28.928H132.854C133.003 28.928 133.124 28.872 133.218 28.76C133.33 28.648 133.386 28.5173 133.386 28.368ZM146.326 31.28H145.738C144.786 31.28 144.02 31.056 143.442 30.608V35.452H139.69V17.336H142.854V18.344C143.432 17.4853 144.394 17.056 145.738 17.056H146.326C148.64 17.056 149.798 18.288 149.798 20.752V27.584C149.798 30.048 148.64 31.28 146.326 31.28ZM143.442 20.304V28.032C143.442 28.1813 143.488 28.312 143.582 28.424C143.694 28.536 143.824 28.592 143.974 28.592H145.514C145.663 28.592 145.784 28.536 145.878 28.424C145.99 28.312 146.046 28.1813 146.046 28.032V20.304C146.046 20.1547 145.99 20.024 145.878 19.912C145.784 19.8 145.663 19.744 145.514 19.744H143.974C143.824 19.744 143.694 19.8 143.582 19.912C143.488 20.024 143.442 20.1547 143.442 20.304Z" fill="#F25864"/>
</svg>
